{"title":"[EG] Outlaw Star - Remastered 1-12 ","uid":9473237,"size":4341594903,"categoryP":"video","categoryS":"tv_shows","magnet":"?xt=urn:btih:560d40df42dc1dc6f4e4495389b67ea42c3c0ac2&amp;dn=%5BEG%5D+Outlaw+Star+-+Remastered+1-12+&amp;tr=udp%3A%2F%2Ftracker.openbittorrent.com%3A80&amp;tr=udp%3A%2F%2Fopen.demonii.com%3A1337&amp;tr=udp%3A%2F%2Ftracker.coppersurfer.tk%3A6969&amp;tr=udp%3A%2F%2Fexodus.desync.com%3A6969","seeders":7,"leechers":1,"uploader":"darkj6","files":12,"time":1389633013,"description":" ______   _______  ______    ___   _      ___  --------|\n|      | |   _   ||    _ |  |   | | |    |   ||   |----|    \n|  _    ||  |_|  ||   | ||  |   |_| |    |   ||   |___ \n| | |   ||       ||   |_||_ |      _|    |   ||    _  |\n| |_|   ||       ||    __  ||     |_  ___|   ||   | | |\n|       ||   _   ||   |  | ||    _  ||       ||   |_| |\n|______| |__| |__||___|  |_||___| |_||_______||_______|\t\n\n\nFormat                                   : Matroska\nFormat version                           : Version 1\nFile size                                : 350 MiB\nDuration                                 : 24mn 16s\nOverall bit rate mode                    : Variable\nOverall bit rate                         : 2 016 Kbps\nEncoded date                             : UTC 2007-07-10 03:46:59\nWriting application                      : mkvmerge v1.7.0 ('What Do You Take Me For') built on Apr 28 2006 17:20:19\nWriting library                          : libebml v0.7.7 + libmatroska v0.8.0\nAttachment                               : Yes / Yes\n\nVideo\nID                                       : 1\nFormat                                   : AVC\nFormat/Info                              : Advanced Video Codec\nFormat profile                           : &lt;a class=&quot;__cf_email__&quot; href=&quot;/cdn-cgi/l/email-protection&quot; data-cfemail=&quot;e4ac8d838ca4a8d1cad5&quot;&gt;[email&amp;#160;protected]&lt;/a&gt;&lt;script cf-hash='f9e31' type=&quot;text/javascript&quot;&gt;\n/* &lt;![CDATA[ */!function(){try{var t=&quot;currentScript&quot;in document?document.currentScript:function(){for(var t=document.getElementsByTagName(&quot;script&quot;),e=t.length;e--;)if(t[e].getAttribute(&quot;cf-hash&quot;))return t[e]}();if(t&amp;&amp;t.previousSibling){var e,r,n,i,c=t.previousSibling,a=c.getAttribute(&quot;data-cfemail&quot;);if(a){for(e=&quot;&quot;,r=parseInt(a.substr(0,2),16),n=2;a.length-n;n+=2)i=parseInt(a.substr(n,2),16)^r,e+=String.fromCharCode(i);e=document.createTextNode(e),c.parentNode.replaceChild(e,c)}}}catch(u){}}();/* ]]&gt; */&lt;/script&gt;\nFormat settings, CABAC                   : Yes\nFormat settings, ReFrames                : 10 frames\nCodec ID                                 : V_MPEG4/ISO/AVC\nDuration                                 : 24mn 16s\nBit rate                                 : 1 776 Kbps\nWidth                                    : 720 pixels\nHeight                                   : 480 pixels\nDisplay aspect ratio                     : 4:3\nOriginal display aspect ratio            : 3:2\nFrame rate mode                          : Constant\nFrame rate                               : 23.976 fps\nStandard                                 : NTSC\nColor space                              : YUV\nChroma subsampling                       : 4:2:0\nBit depth                                : 8 bits\nScan type                                : Progressive\nBits/(Pixel*Frame)                       : 0.214\nStream size                              : 296 MiB (85%)\nWriting library                          : x264 core 55 svn-663\nDefault                                  : Yes\nForced                                   : No\n\nAudio #1\nID                                       : 2\nFormat                                   : Vorbis\nFormat settings, Floor                   : 1\nCodec ID                                 : A_VORBIS\nDuration                                 : 24mn 16s\nBit rate mode                            : Variable\nBit rate                                 : 160 Kbps\nChannel count                            : 2 channels\nSampling rate                            : 48.0 KHz\nCompression mode                         : Lossy\nStream size                              : 27.8 MiB (8%)\nTitle                                    : Japanese 2.0\nWriting library                          : Lancer b5  (UTC 2006-11-10)\nLanguage                                 : Japanese\nDefault                                  : Yes\nForced                                   : No\n\nAudio #2\nID                                       : 3\nFormat                                   : Vorbis\nFormat settings, Floor                   : 1\nCodec ID                                 : A_VORBIS\nDuration                                 : 24mn 16s\nBit rate mode                            : Variable\nBit rate                                 : 112 Kbps\nChannel count                            : 2 channels\nSampling rate                            : 48.0 KHz\nCompression mode                         : Lossy\nStream size                              : 19.4 MiB (6%)\nTitle                                    : English 2.0\nWriting library                          : Lancer b5  (UTC 2006-11-10)\nLanguage                                 : English\nDefault                                  : No\nForced                                   : No\n\nText\nID                                       : 4\nFormat                                   : ASS\nCodec ID                                 : S_TEXT/ASS\nCodec ID/Info                            : Advanced Sub Station Alpha\nCompression mode                         : Lossless\nTitle                                    : English Subs\nLanguage                                 : English\nDefault                                  : Yes\nForced                                   : No\n\n\n","torrent":{"xt":"urn:btih:560d40df42dc1dc6f4e4495389b67ea42c3c0ac2","amp;dn":"%5BEG%5D+Outlaw+Star+-+Remastered+1-12+","amp;tr":["udp%3A%2F%2Ftracker.openbittorrent.com%3A80","udp%3A%2F%2Fopen.demonii.com%3A1337","udp%3A%2F%2Ftracker.coppersurfer.tk%3A6969","udp%3A%2F%2Fexodus.desync.com%3A6969"],"infoHash":"560d40df42dc1dc6f4e4495389b67ea42c3c0ac2","infoHashBuffer":{"type":"Buffer","data":[86,13,64,223,66,220,29,198,244,228,73,83,137,182,126,164,44,60,10,194]},"announce":[],"urlList":[]}}